<?xml version="1.0" standalone="no"?>
<!DOCTYPE svg PUBLIC "-//W3C//DTD SVG 20010904//EN"
 "http://www.w3.org/TR/2001/REC-SVG-20010904/DTD/svg10.dtd">
<svg version="1.0" xmlns="http://www.w3.org/2000/svg"
 width="2048.000000pt" height="2048.000000pt" viewBox="0 0 2048.000000 2048.000000"
 preserveAspectRatio="xMidYMid meet">
<metadata>
Created by potrace 1.14, written by Peter Selinger 2001-2017
</metadata>
<g transform="translate(0.000000,2048.000000) scale(0.100000,-0.100000)"
fill="#000000" stroke="none">
<path d="M9898 19835 c-2 -2 -147 -6 -323 -10 -176 -3 -358 -8 -405 -10 -47
-1 -184 -6 -305 -10 -121 -3 -260 -8 -310 -10 -49 -2 -169 -7 -265 -10 -96 -3
-202 -8 -235 -10 -33 -2 -100 -7 -150 -10 -49 -3 -103 -7 -120 -9 -16 -2 -61
-7 -100 -11 -38 -3 -81 -8 -95 -10 -14 -2 -50 -6 -81 -10 -31 -3 -66 -7 -76
-9 -11 -3 -44 -7 -74 -11 -30 -4 -101 -16 -159 -26 -58 -11 -121 -22 -140 -25
-19 -3 -55 -10 -80 -16 -25 -5 -56 -12 -70 -14 -340 -63 -943 -254 -1325 -419
-71 -31 -152 -66 -180 -78 -173 -73 -725 -371 -822 -443 -17 -13 -34 -24 -38
-24 -8 0 -297 -193 -346 -232 -20 -15 -41 -28 -46 -28 -5 0 -25 15 -44 33 -35
32 -111 99 -159 141 -59 51 -189 143 -285 202 -364 222 -757 350 -1170 379
-77 6 -288 6 -340 1 -22 -3 -74 -7 -115 -11 -41 -4 -77 -8 -80 -10 -3 -1 -27
-6 -55 -9 -27 -4 -66 -11 -85 -16 -19 -5 -46 -11 -60 -13 -14 -3 -52 -13 -85
-22 -246 -70 -462 -169 -655 -298 -417 -278 -703 -652 -868 -1132 -104 -304
-135 -721 -76 -1050 25 -147 32 -178 56 -255 104 -346 245 -617 461 -885 224
-278 585 -559 905 -705 44 -20 53 -28 49 -45 -3 -11 -17 -65 -32 -120 -15 -55
-31 -116 -36 -135 -11 -43 -77 -352 -84 -394 -3 -17 -10 -53 -15 -81 -9 -47
-19 -111 -25 -162 -2 -13 -6 -42 -10 -65 -10 -62 -13 -86 -20 -158 -4 -36 -8
-77 -10 -91 -2 -14 -6 -66 -10 -115 -4 -49 -10 -109 -13 -134 -3 -25 -7 -3016
-9 -6647 l-3 -6603 8960 0 8960 0 -3 6603 c-2 3631 -6 6618 -9 6637 -3 19 -8
87 -13 150 -4 63 -9 117 -10 120 -2 3 -6 43 -10 90 -3 46 -8 87 -10 90 -2 3
-6 30 -9 60 -9 80 -12 102 -19 135 -3 17 -9 48 -12 70 -5 39 -10 68 -19 110
-2 11 -7 40 -11 65 -4 25 -13 70 -20 100 -8 30 -17 70 -20 88 -3 18 -12 61
-21 95 -8 34 -17 73 -20 87 -3 14 -13 54 -23 90 -29 102 -32 120 -21 120 17 0
260 123 325 164 217 139 322 220 477 372 272 265 477 581 602 926 35 97 71
220 80 271 3 15 8 36 11 48 35 110 49 676 21 834 -69 388 -217 715 -457 1011
-75 92 -216 237 -283 289 -21 17 -50 40 -65 53 -35 31 -203 143 -271 181 -136
77 -339 162 -487 205 -106 30 -246 62 -310 70 -112 14 -143 18 -183 21 -58 5
-336 5 -375 1 -16 -2 -57 -7 -90 -10 -559 -59 -1086 -309 -1524 -723 l-55 -52
-27 17 c-15 9 -83 55 -151 102 -68 47 -154 105 -193 130 -38 24 -92 58 -120
75 -89 57 -366 211 -515 285 -226 113 -381 182 -675 301 -194 77 -698 239
-821 263 -10 2 -44 11 -74 20 -30 8 -70 18 -89 21 -19 3 -37 8 -41 10 -4 2
-20 7 -36 9 -16 3 -38 8 -49 10 -94 21 -170 37 -197 41 -18 3 -40 8 -48 10
-13 3 -55 11 -115 20 -11 2 -51 9 -90 15 -38 6 -79 13 -90 14 -11 2 -38 6 -60
9 -22 4 -65 9 -95 12 -30 4 -62 8 -70 10 -8 2 -49 7 -90 10 -41 4 -88 8 -104
10 -16 2 -73 7 -125 11 -129 9 -147 10 -286 18 -66 4 -142 9 -170 11 -27 2
-131 7 -230 11 -99 3 -209 8 -245 10 -77 5 -1657 13 -1662 9z"/>
</g>
</svg>
